<svg width="42" height="42" viewBox="0 0 42 42" fill="none" xmlns="http://www.w3.org/2000/svg">
<path d="M35.1244 41.1847H6.06034C2.7137 41.1847 0 38.471 0 35.1244V6.06034C0 2.7137 2.7137 0 6.06034 0H35.1244C38.471 0 41.1847 2.7137 41.1847 6.06034V35.1244C41.1847 38.471 38.471 41.1847 35.1244 41.1847Z" fill="#E5E5E5"/>
<path d="M27.9563 11.3293V6.79438C27.9563 6.79438 23.3032 6.75146 22.9873 6.75146C20.8848 6.75146 17.8604 9.1348 17.8604 11.8386C17.8604 14.8857 17.8604 16.6911 17.8604 16.6911H13.5032V21.8383H17.8029V34.6076H22.8896V21.7782H27.3847L27.9563 16.7483H22.9471C22.9471 16.7483 22.9471 13.6583 22.9471 13.0546C22.9471 12.1676 23.6163 11.3007 24.6245 11.3007C25.2937 11.3036 27.9563 11.3293 27.9563 11.3293Z" fill="#163029"/>
</svg>
