<svg width="42" height="42" viewBox="0 0 42 42" fill="none" xmlns="http://www.w3.org/2000/svg">
<path d="M35.9397 41.1847H6.87565C3.52901 41.1847 0.815308 38.471 0.815308 35.1244V6.06034C0.815308 2.7137 3.52901 0 6.87565 0H35.9397C39.2863 0 42 2.7137 42 6.06034V35.1244C42 38.471 39.2863 41.1847 35.9397 41.1847Z" fill="#E5E5E5"/>
<path d="M19.2654 15.4737L22.2585 12.4202C22.2585 12.4202 18.652 9.17577 12.7463 10.4059C7.26618 11.5454 5.51993 15.3664 5.02387 18.3897C4.54792 21.2822 5.09426 25.1233 7.42371 27.6438C9.11969 29.4772 11.1877 30.8615 15.5818 30.8615C20.1804 30.8615 25.5666 27.0673 25.2516 18.5003H15.1428V22.5324H20.9044C20.9044 22.5324 20.1234 26.3501 16.0243 26.5947C13.4066 26.7523 9.91405 25.9009 9.22024 21.7146C8.70743 18.6075 9.93416 15.0212 13.7116 14.4548C17.489 13.8816 19.2654 15.4737 19.2654 15.4737Z" fill="#163029"/>
<path d="M37.7134 18.5976H34.0031V14.8906H31.3116V18.5976H27.6046V21.2924H31.3116V24.9995H34.0031V21.2924H37.7134V18.5976Z" fill="#163029"/>
</svg>
